HIERARCHY
ROOT Hips
{
	OFFSET -0.179506 -22.333345 2.821913
	CHANNELS 6 Xposition Yposition Zposition Zrotation Yrotation Xrotation 
	JOINT LeftUpLeg
	{
		OFFSET 6.951974 -9.140623 -0.681533
		CHANNELS 3 Zrotation Yrotation Xrotation
		JOINT LeftLeg
		{
			OFFSET 3.427654 -37.519855 -0.449580
			CHANNELS 3 Zrotation Yrotation Xrotation
			JOINT LeftFoot
			{
				OFFSET -1.359570 -39.796059 -4.369333
				CHANNELS 3 Zrotation Yrotation Xrotation
				JOINT LeftToe
				{
					OFFSET 2.635814 -5.579078 11.928840
					CHANNELS 3 Zrotation Yrotation Xrotation
					End Site
					{
						OFFSET 0.000000 0.000000 0.000000
					}
				}
			}
		}
	}
	JOINT RightUpLeg
	{
		OFFSET -6.767048 -9.052170 -0.431982
		CHANNELS 3 Zrotation Yrotation Xrotation
		JOINT RightLeg
		{
			OFFSET -3.829005 -38.256897 -0.885003
			CHANNELS 3 Zrotation Yrotation Xrotation
			JOINT RightFoot
			{
				OFFSET 1.577377 -39.841461 -4.231180
				CHANNELS 3 Zrotation Yrotation Xrotation
				JOINT RightToe
				{
					OFFSET -2.537174 -4.814398 12.334795
					CHANNELS 3 Zrotation Yrotation Xrotation
					End Site
					{
						OFFSET 0.000000 0.000000 0.000000
					}
				}
			}
		}
	}
	JOINT Spine
	{
		OFFSET -0.253288 10.896323 -2.669631
		CHANNELS 3 Zrotation Yrotation Xrotation
		JOINT Spine1
		{
			OFFSET 0.548704 13.518043 0.109247
			CHANNELS 3 Zrotation Yrotation Xrotation
			JOINT Spine2
			{
				OFFSET 0.145701 5.292222 2.542457
				CHANNELS 3 Zrotation Yrotation Xrotation
				JOINT Neck
				{
					OFFSET -0.277840 21.387037 -4.285703
					CHANNELS 3 Zrotation Yrotation Xrotation
					JOINT Head
					{
						OFFSET 0.515184 6.496960 5.134897
						CHANNELS 3 Zrotation Yrotation Xrotation
						End Site
						{
							OFFSET 0.000000 0.000000 0.000000
						}
					}
				}
				JOINT LeftShoulder
				{
					OFFSET 7.884473 12.174932 -3.408961
					CHANNELS 3 Zrotation Yrotation Xrotation
					JOINT LeftArm
					{
						OFFSET 9.097692 3.046888 -0.886815
						CHANNELS 3 Zrotation Yrotation Xrotation
						JOINT LeftForeArm
						{
							OFFSET 25.961220 -1.277207 -2.745643
							CHANNELS 3 Zrotation Yrotation Xrotation
							JOINT LeftHand
							{
								OFFSET 24.923361 0.898606 -0.117091
								CHANNELS 3 Zrotation Yrotation Xrotation
								End Site
								{
									OFFSET 0.000000 0.000000 0.000000
								}
							}
						}
					}
				}
				JOINT RightShoulder
				{
					OFFSET -8.175920 11.883285 -3.861528
					CHANNELS 3 Zrotation Yrotation Xrotation
					JOINT RightArm
					{
						OFFSET -9.601238 3.255117 -0.914307
						CHANNELS 3 Zrotation Yrotation Xrotation
						JOINT RightForeArm
						{
							OFFSET -25.374195 -1.332924 -2.140099
							CHANNELS 3 Zrotation Yrotation Xrotation
							JOINT RightHand
							{
								OFFSET -25.529810 0.777228 -0.555919
								CHANNELS 3 Zrotation Yrotation Xrotation
								End Site
								{
									OFFSET 0.000000 0.000000 0.000000
								}
							}
						}
					}
				}
			}
		}
	}
}
MOTION
Frames: 16
Frame Time: 0.033333
-17.895422 -58.309795 95.936142 172.446170 -1.348434 85.828376 -6.484628 -2.009974 -2.243958 -1.961968 0.550311 8.036158 0.899092 13.812469 -2.530312 nan nan nan -2.888882 1.787118 -12.454289 2.889900 -1.326234 50.048861 5.550698 -4.599031 -1.996490 nan nan nan 0.212074 0.288617 6.358970 0.503707 -1.234939 3.523468 -1.656379 0.743688 -0.508091 0.751860 -1.145265 2.114188 7.277793 0.640689 -5.871592 -17.655577 4.411724 -4.586173 -64.664468 -8.358046 14.162665 12.877761 -19.349917 -24.557419 -2.904323 -17.649975 -23.473479 15.164240 -2.513849 -1.887687 64.058207 4.659631 12.461361 -3.875767 32.180940 -5.791337 5.793407 15.091006 -16.612838 
-17.842594 -57.545021 96.083786 172.877610 -1.133539 85.856552 -6.420239 -1.985852 -1.348366 -1.863056 0.097290 7.371133 0.525333 13.852672 -2.834466 nan nan nan -2.626041 1.874916 -13.474556 2.605437 -1.883499 48.847231 5.415927 -5.052898 -2.270864 nan nan nan 0.227958 -0.229585 6.641030 0.662929 -1.465397 3.210250 -1.546286 0.516719 -0.511193 0.674168 -0.851576 2.172400 7.368515 0.890337 -5.744261 -17.576927 4.382399 -4.624422 -64.496029 -9.226226 14.366931 12.960344 -19.975876 -24.774151 -2.798436 -17.786325 -23.177862 15.164696 -2.691677 -1.787321 63.975933 4.302473 12.456083 -3.883329 32.023827 -5.881240 6.051455 15.072879 -16.834307 
-17.783543 -56.781334 96.227226 173.351511 -0.986499 85.851524 -6.505607 -2.074297 -0.419102 -1.550288 -1.274658 6.936767 0.320808 13.774632 -2.779555 nan nan nan -2.431608 1.987241 -14.355903 2.392923 -2.427489 47.376639 5.029256 -5.576740 -2.295826 nan nan nan 0.052553 -0.755227 6.918468 0.902724 -1.665918 3.044023 -1.318359 0.312245 -0.602704 0.428428 -0.717947 2.369417 7.524901 1.282708 -5.741370 -17.570063 4.198838 -4.485458 -64.265763 -10.076858 14.598572 12.946249 -20.792830 -24.896092 -2.035549 -18.040113 -23.317766 15.059410 -2.936886 -1.734180 63.854289 3.829440 12.429316 -3.862837 32.102298 -5.472544 5.708049 15.314048 -17.123330 
-17.726665 -56.001797 96.328873 173.897120 -0.805068 85.910936 -6.572298 -1.956833 0.453007 -1.178727 -2.021386 6.240675 0.081959 13.873051 -2.988565 nan nan nan -2.199078 1.986752 -15.223652 2.197545 -2.897423 45.799844 4.842533 -6.108116 -2.303867 nan nan nan 0.002267 -1.224862 6.970164 1.090005 -1.847916 2.936432 -1.109076 0.084942 -0.517514 0.183378 -0.696697 2.356193 7.630236 1.505498 -5.633558 -17.544473 3.875524 -4.403670 -64.116381 -10.988873 14.631261 13.021221 -21.511840 -25.181657 -1.792320 -18.210881 -23.227657 14.821608 -3.313682 -1.815161 63.788888 3.268770 12.042510 -3.591618 32.274245 -5.090587 5.845884 15.306044 -17.024031 
-17.694641 -55.176266 96.400253 174.401525 -0.637235 85.921771 -6.635921 -1.592153 1.402667 -0.802266 -2.788571 5.531269 -0.218625 13.809402 -3.253677 nan nan nan -1.999627 1.929992 -15.974972 2.012048 -3.227390 44.128170 4.913144 -6.541607 -2.496937 nan nan nan 0.024112 -1.689269 7.007899 1.228020 -2.009345 2.868979 -0.963007 -0.075578 -0.405822 -0.059243 -0.757867 2.366748 7.812618 1.676521 -5.589356 -17.571729 3.442566 -4.304816 -63.931384 -11.886042 14.580558 13.252264 -22.216215 -25.630303 -1.738558 -18.098971 -22.857032 14.612227 -3.557422 -1.866865 63.688951 2.701190 11.459776 -3.293513 32.399686 -5.140907 6.174447 14.850820 -16.921854 
-17.679750 -54.357742 96.443504 174.845799 -0.475897 85.883482 -6.635652 -1.279011 2.334389 -0.592532 -3.461221 4.915811 -0.466060 13.805978 -3.564112 nan nan nan -1.828655 1.859972 -16.642340 1.892241 -3.495136 42.348150 4.859778 -6.904553 -2.621646 nan nan nan 0.094731 -2.052678 7.085296 1.341047 -2.121002 2.845049 -0.839708 -0.226947 -0.280098 -0.291621 -0.736306 2.299697 7.945418 1.807321 -5.552291 -17.531347 2.900203 -4.242835 -63.732054 -12.800088 14.621234 13.342112 -22.893879 -25.984640 -1.562970 -18.171272 -22.726151 14.386862 -3.678840 -2.050562 63.651785 1.971309 11.073300 -3.256559 32.389222 -5.061866 6.476966 14.682894 -16.764699 
-17.650087 -53.587994 96.463318 175.310967 -0.316400 85.953334 -6.543827 -1.221505 2.981739 -0.511179 -3.840995 4.547041 -0.656975 13.701015 -3.835674 nan nan nan -1.712231 1.801275 -17.486644 1.816827 -3.926191 40.554314 4.785730 -7.212432 -2.523094 nan nan nan 0.093482 -2.362592 7.187301 1.521298 -2.264485 2.744106 -0.676061 -0.457160 -0.210912 -0.464513 -0.549579 2.114398 7.995509 1.997015 -5.383373 -17.424959 2.532816 -4.245561 -63.613653 -13.726877 14.840776 13.407184 -23.444158 -26.190809 -1.759178 -18.441788 -22.665266 14.229726 -3.881665 -2.233548 63.563111 1.283965 11.036402 -3.421240 32.390057 -4.720389 6.862191 14.791849 -16.698377 
-17.606295 -52.839626 96.456703 175.891957 -0.133798 86.099584 -6.454389 -1.245594 3.500233 -0.360741 -4.318174 4.292865 -0.794960 13.692153 -4.264391 nan nan nan -1.585903 1.799403 -18.312328 1.772381 -4.413465 38.545808 4.722402 -7.695473 -2.441937 nan nan nan 0.049930 -2.729642 7.279589 1.762658 -2.518459 2.563314 -0.494966 -0.713618 -0.110469 -0.631919 -0.417978 1.933277 8.088701 2.321328 -5.279845 -17.348300 2.205586 -4.242866 -63.439331 -14.567217 15.033469 13.560280 -24.102828 -26.481459 -1.675337 -18.700755 -22.894595 14.061084 -4.156228 -2.522691 63.482047 0.628139 11.045323 -3.457606 32.420676 -4.504261 6.944397 14.832747 -17.074742 
-17.542004 -52.060741 96.445084 176.473713 0.033149 86.264598 -6.387618 -1.178802 4.141148 -0.099458 -4.880392 3.776606 -0.997749 13.685897 -4.653755 nan nan nan -1.403403 1.847093 -18.957304 1.652338 -4.839793 36.272941 4.697934 -8.173609 -2.368090 nan nan nan -0.091980 -3.090891 7.260809 2.028226 -2.753639 2.440377 -0.256207 -0.960721 -0.031532 -0.883549 -0.399566 1.989173 8.286034 2.544448 -5.279385 -17.314536 1.781540 -4.137581 -63.192074 -15.350654 15.130382 13.695987 -24.812693 -26.948867 -1.435976 -19.095146 -23.189326 13.912622 -4.403697 -2.778978 63.368860 -0.045830 10.945443 -3.530271 32.387019 -4.419630 6.869810 15.005612 -17.404272 
-17.454796 -51.246506 96.440590 176.896927 0.068295 86.380026 -6.387464 -0.919016 4.933493 0.117880 -5.469056 3.126187 -1.249256 13.646556 -4.916639 nan nan nan -1.272086 1.839677 -19.502691 1.513558 -5.046118 33.983120 4.725929 -8.511626 -2.081988 nan nan nan -0.448871 -3.356396 7.081805 2.277007 -2.881183 2.583794 0.027561 -1.200846 -0.026952 -1.064914 -0.378480 2.015177 8.511229 2.710883 -5.172340 -17.283322 1.299405 -3.916796 -62.891783 -16.243188 15.163926 13.778781 -25.509678 -27.731321 -1.602034 -19.278473 -23.381435 13.931796 -4.517303 -2.662744 63.088230 -0.499684 10.654407 -3.684572 32.395507 -4.547718 7.113467 14.754062 -17.231717 
-17.388895 -50.442471 96.413666 177.233468 0.054174 86.392819 -6.473833 -0.647894 5.874690 0.350976 -6.039904 2.413493 -1.377277 13.645808 -5.104177 nan nan nan -1.267559 1.793506 -20.020673 1.474653 -5.261479 31.811933 5.008763 -8.765857 -1.575730 nan nan nan -0.755043 -3.569695 7.115180 2.466946 -2.905095 2.615995 0.275168 -1.470582 0.077558 -1.185940 -0.344935 1.801380 8.592778 2.791278 -5.025215 -17.256870 0.927147 -3.920847 -62.631304 -17.155031 15.361526 13.760834 -26.123111 -28.268291 -1.277055 -19.431211 -23.532703 14.024574 -4.736053 -2.633876 62.704909 -1.005236 10.324187 -3.718942 32.619877 -4.643196 7.101184 14.306127 -16.962501 
-17.260815 -49.640877 96.368881 177.570987 0.031651 86.569468 -6.434723 -0.362387 6.554993 0.441685 -6.579140 1.863529 -1.497097 13.529760 -5.371309 nan nan nan -1.239012 1.767253 -20.695207 1.325438 -5.650022 29.628701 5.158295 -9.042117 -0.869690 nan nan nan -1.144062 -3.818556 6.966965 2.675476 -2.902619 2.693834 0.541757 -1.670882 0.077214 -1.284003 -0.139276 1.719894 8.699136 2.715446 -5.082074 -17.146847 0.506763 -3.811360 -62.274184 -18.000373 15.441410 13.717108 -26.722275 -28.533220 -0.856997 -19.813430 -23.379043 14.070719 -5.011695 -2.704726 62.394937 -1.783405 9.868407 -3.667000 32.828975 -4.526740 7.146383 14.284023 -16.574527 
-17.133106 -48.865704 96.306412 178.097648 0.015331 86.744858 -6.323169 -0.182514 6.991232 0.411417 -7.079234 1.736649 -1.594245 13.240491 -5.826175 nan nan nan -1.202190 1.620141 -21.301320 1.156819 -6.043405 27.349422 5.161006 -9.373498 -0.100552 nan nan nan -1.512445 -4.076126 6.845303 2.889388 -3.046734 2.800266 0.788285 -1.916279 0.024388 -1.333179 0.032862 1.645568 8.821277 2.709896 -5.091557 -17.091189 -0.008406 -3.537913 -61.826381 -18.866392 15.239855 14.011136 -27.283880 -28.793897 -1.014450 -20.090730 -22.499486 14.091080 -5.214979 -2.722810 62.229485 -2.471192 9.270286 -3.856091 32.939846 -4.445150 7.732108 14.337248 -15.659472 
-17.170368 -48.162815 96.211655 179.246322 -0.041256 86.775080 -6.587423 -0.740231 7.468001 0.656592 -7.598474 1.734224 -1.551000 13.110104 -6.179047 nan nan nan -1.488345 0.885430 -21.630385 1.321261 -6.534802 24.875296 5.422323 -9.721706 0.789403 nan nan nan -1.535823 -4.228715 7.146903 3.020126 -3.693306 2.627154 0.833362 -2.404149 0.010038 -1.500499 -0.198871 1.380489 9.005968 3.115691 -4.804092 -17.123297 -0.579286 -3.308738 -61.354085 -19.816633 15.149975 14.426417 -27.779261 -29.047947 -0.884187 -20.175635 -21.762390 14.113845 -5.342809 -2.855237 62.070423 -2.985993 8.862099 -4.155718 32.965124 -4.874343 8.504408 14.232581 -15.202751 
-17.142323 -47.388622 96.098953 179.921019 -0.180592 86.876306 -6.885193 -0.992267 8.165848 0.935721 -8.073647 1.275674 -1.493246 13.122096 -6.470551 nan nan nan -1.700458 0.486712 -22.026936 1.491660 -6.599769 22.475847 5.894471 -9.928260 1.634866 nan nan nan -1.839906 -4.337194 7.110436 3.197035 -4.077413 2.688949 0.930004 -2.770836 0.020229 -1.747860 -0.374761 1.121745 9.380345 3.311948 -4.516711 -17.052051 -0.951766 -3.171204 -60.960588 -20.701665 15.298262 14.549634 -28.405042 -29.544498 -0.412738 -20.185941 -21.785110 14.294411 -5.513041 -2.924292 61.679873 -3.442087 8.740938 -4.251859 33.104630 -5.382645 8.626266 14.182450 -15.256942 
-17.064732 -46.591824 95.977859 -179.465014 -0.197924 87.067113 -6.925294 -1.099042 8.669307 1.097743 -8.572387 1.017297 -1.504407 13.124980 -6.842435 nan nan nan -1.692159 0.230298 -22.435891 1.554058 -6.560365 20.036286 6.040430 -10.142730 2.397807 nan nan nan -2.090320 -4.489261 6.998392 3.442189 -4.402935 2.767446 1.103381 -3.074946 -0.088635 -1.949818 -0.488656 1.062425 9.560503 3.549264 -4.357240 -17.132901 -1.301280 -2.957820 -60.422738 -21.535212 15.329503 14.427725 -29.109734 -29.870550 -0.296534 -20.311099 -21.943315 14.342280 -5.743988 -2.906053 61.333319 -3.947417 8.478118 -4.327440 33.255296 -5.578649 8.785950 14.045800 -14.910569 
